<?xml version="1.0" encoding="UTF-8"?>
<!DOCTYPE svg PUBLIC "-//W3C//DTD SVG 1.1//EN" "http://www.w3.org/Graphics/SVG/1.1/DTD/svg11.dtd">
<!-- Creator: CorelDRAW 2018 (64 Bit Versão de avaliação) -->
<svg xmlns="http://www.w3.org/2000/svg" xml:space="preserve" width="14.4269mm" height="14.427mm" version="1.1" style="shape-rendering:geometricPrecision; text-rendering:geometricPrecision; image-rendering:optimizeQuality; fill-rule:evenodd; clip-rule:evenodd"
viewBox="0 0 99.66 99.66"
 xmlns:xlink="http://www.w3.org/1999/xlink">
 <defs>
  <style type="text/css">
   <![CDATA[
    .fil0 {fill:none}
    .fil1 {fill:#373435}
   ]]>
  </style>
 </defs>
 <g id="Camada_x0020_1">
  <metadata id="CorelCorpID_0Corel-Layer"/>
  <g id="_2153669150784">
   <rect class="fil0" x="-0" width="99.66" height="99.66"/>
   <g>
    <g>
     <path class="fil1" d="M16.16 42.31c30.46,7.8 15.69,4.07 44.32,11.22 13.86,-14.43 6.87,-6.54 20.75,-23.88 -11.96,19.36 -5.87,10.05 -18.19,27.98 -32.13,-8.26 -16.51,-3.13 -46.89,-15.32z"/>
    </g>
    <path class="fil0" d="M16.16 42.31c2.55,1.35 43.82,14.38 45.61,13.27 4.54,-2.84 14.1,-19.68 19.47,-25.93"/>
    <g>
     <path class="fil1" d="M27.04 38.51c14.25,-19.82 8,-15.18 37.16,-7.75 -15.32,-0.25 -6.91,0.15 -25.47,-1.63 -3.05,1.52 -9.85,7.7 -11.69,9.38zm11.76 -9.42c0.24,-0.01 0.5,-0.06 0.6,-0.19l-0.05 -0.03c-0.16,0.05 -0.35,0.13 -0.55,0.23z"/>
    </g>
    <path class="fil0" d="M27.04 38.51c0.89,-1.05 10.5,-11.81 11.66,-11.67 11.38,1.42 21.53,4.19 25.5,3.92"/>
    <g>
     <path class="fil1" d="M63.15 59.19c1.3,9.62 0.91,7.09 1.73,12.25 0.98,-8.17 14.54,-25.18 18.62,-34.2 -4.22,15.71 -6.92,25.48 -18.23,36.69l0.08 0.54c-0.08,-0.13 -0.15,-0.27 -0.21,-0.41 -0.55,0.54 -1.12,1.08 -1.71,1.63 -1.83,-1.19 -0.34,-14.84 -0.29,-16.5z"/>
    </g>
    <path class="fil0" d="M63.15 59.19c0.15,7.63 0.86,11.48 0.86,15.27 0.12,0.06 19.5,-30.91 19.5,-37.22"/>
    <g>
     <path class="fil1" d="M24.01 50.41c-0.81,2.74 -1.56,7.75 -2.47,10.78 22.07,6.12 11.34,2.31 33.36,12.01 -35.36,-6.6 -42.43,-0.11 -30.89,-22.79z"/>
    </g>
    <path class="fil0" d="M24.01 50.41c-2.58,5.25 -2.65,10.04 -4.08,11.65 8.66,2.67 26.43,8.96 34.97,11.14"/>
   </g>
  </g>
 </g>
</svg>
