<?xml version="1.0" encoding="UTF-8"?>
<!DOCTYPE svg PUBLIC "-//W3C//DTD SVG 1.1//EN" "http://www.w3.org/Graphics/SVG/1.1/DTD/svg11.dtd">
<!-- Creator: CorelDRAW 2018 (64 Bit Versão de avaliação) -->
<svg xmlns="http://www.w3.org/2000/svg" xml:space="preserve" width="14.4269mm" height="14.427mm" version="1.1" style="shape-rendering:geometricPrecision; text-rendering:geometricPrecision; image-rendering:optimizeQuality; fill-rule:evenodd; clip-rule:evenodd"
viewBox="0 0 86.84 86.84"
 xmlns:xlink="http://www.w3.org/1999/xlink">
 <defs>
  <style type="text/css">
   <![CDATA[
    .fil0 {fill:none}
    .fil1 {fill:#373435}
   ]]>
  </style>
 </defs>
 <g id="Camada_x0020_1">
  <metadata id="CorelCorpID_0Corel-Layer"/>
  <g id="_2119176584720">
   <rect class="fil0" x="-0" width="86.84" height="86.84"/>
   <g>
    <path class="fil1" d="M8.86 43.88c46.05,-2.83 23.01,-2.83 69.11,-0 -46.1,2.83 -23.07,2.83 -69.11,0z"/>
    <path class="fil0" d="M8.86 43.88c11.61,0 57.4,-0 69.11,-0"/>
    <path class="fil1" d="M18.79 56.41c32.81,-2.02 16.4,-2.01 49.25,-0 -32.85,2.01 -16.44,2.02 -49.25,0z"/>
    <path class="fil0" d="M18.79 56.41c8.27,0 40.9,-0 49.25,-0"/>
    <path class="fil1" d="M30.24 69.3c17.56,-1.08 8.78,-1.08 26.36,0 -17.58,1.08 -8.8,1.08 -26.36,0z"/>
    <path class="fil0" d="M30.24 69.3c4.43,0 21.89,0 26.36,0"/>
   </g>
  </g>
 </g>
</svg>
