<?xml version="1.0" encoding="UTF-8"?>
<!DOCTYPE svg PUBLIC "-//W3C//DTD SVG 1.1//EN" "http://www.w3.org/Graphics/SVG/1.1/DTD/svg11.dtd">
<!-- Creator: CorelDRAW 2018 (64 Bit Versão de avaliação) -->
<svg xmlns="http://www.w3.org/2000/svg" xml:space="preserve" width="14.4269mm" height="14.427mm" version="1.1" style="shape-rendering:geometricPrecision; text-rendering:geometricPrecision; image-rendering:optimizeQuality; fill-rule:evenodd; clip-rule:evenodd"
viewBox="0 0 62.65 62.65"
 xmlns:xlink="http://www.w3.org/1999/xlink">
 <defs>
  <style type="text/css">
   <![CDATA[
    .fil0 {fill:none}
    .fil1 {fill:#FEFEFE}
   ]]>
  </style>
 </defs>
 <g id="Camada_x0020_1">
  <metadata id="CorelCorpID_0Corel-Layer"/>
  <g id="_2153665658928">
   <rect class="fil0" x="-0" width="62.65" height="62.65"/>
   <path class="fil1" d="M34.78 22.22c0.65,0.75 8.15,8.9 9.75,6.87l0 0c1.6,-2.84 -12.13,-12.78 -16.3,-14.11 2.59,12.1 27.16,27.59 21.98,16.05 -1.35,-3.02 -5.58,-7.71 -7.83,-10.38l3.21 3.47c19.98,22.5 -15.43,8.82 -19.57,-6.14 -4.3,-15.52 19.22,6.32 19.33,10.54 0.14,5.5 -10.04,-5.63 -10.57,-6.29zm-7.25 -7.38c-0.05,-0 -0.11,-0 -0.15,0 0.05,0.01 0.1,0.01 0.15,-0z"/>
   <path class="fil0" d="M34.78 22.22c0.86,1.5 8.38,9.22 10,7.07 2.57,-3.42 -17.68,-18.27 -17.94,-15.25 -0.73,8.43 17.91,23.29 22.83,21.49 5.38,-1.98 -4.36,-11.34 -7.29,-14.88"/>
   <path class="fil1" d="M50.67 35.58c-9.02,11.25 -4.56,7.74 -17.74,13.92l3.88 -2.92c7.48,-6.72 7.37,-5.62 13.86,-11.01z"/>
   <path class="fil0" d="M50.67 35.58c-1.01,1.41 -4.46,4.48 -8.16,7.4 -3.67,2.9 -7.57,5.66 -9.58,6.53"/>
   <path class="fil1" d="M25.49 14.21c-6.22,7.32 -2.82,4.56 -9.74,8.8 4.54,-6.79 1.52,-3.63 9.74,-8.8z"/>
   <path class="fil0" d="M25.49 14.21c-4.83,3.86 -7.5,6.66 -9.74,8.8"/>
   <path class="fil1" d="M11.21 31.24c4.5,7.03 5.29,5.66 10.72,10.35 3.28,2.83 5.57,6.41 10.62,6.99 -9.69,0.31 -17.68,-9.1 -21.33,-17.34z"/>
   <path class="fil0" d="M11.21 31.24c2.8,7.13 16.17,17.79 21.33,17.34"/>
  </g>
 </g>
</svg>
